<svg width="22" height="22" viewBox="0 0 22 22" fill="none" xmlns="http://www.w3.org/2000/svg">
<path fill-rule="evenodd" clip-rule="evenodd" d="M16.5 12C19.261 12 21.5 14.238 21.5 17C21.5 18.65 20.69 20.101 19.458 21.011C18.628 21.625 17.611 22 16.5 22C14.64 22 13.036 20.972 12.175 19.465C11.757 18.735 11.5 17.901 11.5 17C11.5 16.474 11.603 15.977 11.754 15.502C11.985 14.77 12.365 14.11 12.879 13.567C13.791 12.606 15.071 12 16.5 12ZM20.496 11.1528C19.362 10.3608 17.985 9.89184 16.5 9.89184C15.0441 9.89184 13.6621 10.3341 12.4959 11.1573C12.5048 10.9577 12.4982 10.7577 12.4779 10.5577C12.4489 10.2757 12.2249 10.0517 11.9429 10.0227C11.6479 9.99274 11.3529 9.99274 11.0579 10.0227C10.7759 10.0517 10.5519 10.2757 10.5229 10.5577C10.4929 10.8527 10.4929 11.1477 10.5229 11.4427C10.5519 11.7237 10.7759 11.9487 11.0579 11.9777C11.2099 11.9927 11.3619 11.9999 11.5139 11.9995C11.4838 12.0244 11.4558 12.0535 11.428 12.0828C10.706 12.8448 10.174 13.7558 9.847 14.7898C9.613 15.5288 9.5 16.2158 9.5 16.8918C9.5 18.0968 9.815 19.2598 10.438 20.3498C10.566 20.5748 10.713 20.7848 10.863 20.9908C9.267 21.0038 7.67 20.9368 6.073 20.7728C3.257 20.4838 1.017 18.2438 0.728 15.4268C0.47299 12.9514 0.431895 10.476 0.604714 8.00052L20.395 8.00081C20.4669 9.05123 20.4994 10.1018 20.496 11.1528ZM6.9424 14.0227C6.6474 13.9927 6.3524 13.9927 6.0584 14.0227C5.7754 14.0517 5.5514 14.2757 5.5234 14.5577C5.4924 14.8527 5.4924 15.1477 5.5234 15.4427C5.5514 15.7237 5.7754 15.9487 6.0584 15.9777C6.3524 16.0067 6.6474 16.0067 6.9424 15.9777C7.2244 15.9487 7.4484 15.7237 7.4774 15.4427C7.5074 15.1477 7.5074 14.8527 7.4774 14.5577C7.4484 14.2757 7.2244 14.0517 6.9424 14.0227ZM6.9424 10.0227C6.6474 9.99274 6.3524 9.99274 6.0584 10.0227C5.7754 10.0517 5.5514 10.2757 5.5234 10.5577C5.4924 10.8527 5.4924 11.1477 5.5234 11.4427C5.5514 11.7237 5.7754 11.9487 6.0584 11.9777C6.3524 12.0067 6.6474 12.0067 6.9424 11.9777C7.2244 11.9487 7.4484 11.7237 7.4774 11.4427C7.5074 11.1477 7.5074 10.8527 7.4774 10.5577C7.4484 10.2757 7.2244 10.0517 6.9424 10.0227ZM17.3182 16.1819V14.8182C17.3182 14.3664 16.9519 14.0001 16.5 14.0001C16.0481 14.0001 15.6818 14.3664 15.6818 14.8182V16.1819H14.3182C13.8663 16.1819 13.5 16.5482 13.5 17.0001C13.5 17.4519 13.8663 17.8182 14.3182 17.8182H15.6818V19.1819C15.6818 19.6337 16.0481 20.0001 16.5 20.0001C16.9519 20.0001 17.3182 19.6337 17.3182 19.1819V17.8182H18.6818C19.1337 17.8182 19.5 17.4519 19.5 17.0001C19.5 16.5482 19.1337 16.1819 18.6818 16.1819H17.3182ZM13.5 0.000244141C14.0128 0.000244141 14.4355 0.386284 14.4933 0.883623L14.5 1.00024V1.18724L14.927 1.22784C17.549 1.49694 19.6717 3.45752 20.1858 6.0004L0.815013 6.00053C1.32824 3.45758 3.45092 1.49694 6.073 1.22784L6.50091 1.18589L6.5 1.00024C6.5 0.447959 6.94772 0.000244141 7.5 0.000244141C8.01284 0.000244141 8.43551 0.386284 8.49327 0.883623L8.50064 1.04634C9.83385 0.984328 11.1672 0.984344 12.5004 1.04639L12.5 1.00024C12.5 0.447959 12.9477 0.000244141 13.5 0.000244141Z" fill="#ADB6C9"/>
</svg>
